# xmcd CD database file
# Copyright (C) 1993-1996 Ti Kan
#
# Track frame offsets:
#  150
#  33581
#  60584
#  87812
#  107061
#  143525
#  176832
#  193336
#
# Disc length: 2854 seconds
#
# Revision: 1
# Processed by: cddbd v1.5.2PL0 Copyright (c) Steve Scherf et al.
# Submitted via: Advanced CD Ripper Pro 2.0
#
DISCID=6b0b2408
DTITLE=PAÇANAKLÝ SÜLEYMAN - ÝNADINA ÝNADINA BÝRÝNÝ SEVÝYORUM
DYEAR=2008
DGENRE=
TTITLE0=BENÝDE DÜÞÜN BENÝDE - GEL GEL DOLANA
TTITLE1=BARLARDA GÜLÜM BARLARDA - ÝNADINA ÝNADINA
TTITLE2=ASLAN MARTIM - BULGURUNA TARHANA
TTITLE3=BÝRÝNÝ SEVÝYORUM
TTITLE4=HEY ÜSKÜDAR - KAR YOLLA
TTITLE5=SEKÝZ OLUR DOKUZ OLUR - BAÐLAR GAZELÝ
TTITLE6=HASTA ETTÝN BENÝ
TTITLE7=SABAH OLDU - CEZAÝR
EXTD=
EXTT0=
EXTT1=
EXTT2=
EXTT3=
EXTT4=
EXTT5=
EXTT6=
EXTT7=
PLAYORDER=
